# xmcd CD database file
#
# Track frame offsets:
#	150
#	28332
#	52446
#	69565
#	82873
#	94974
#	105485
#	125823
#	137085
#	157999
#	176500
#	193568
#
# Disc length: 3117 seconds
#
# Revision: 0
# Processed by: cddbd v1.5.2PL0 Copyright (c) Steve Scherf et al.
# Submitted via: CDex 1.51
#
DISCID=a90c2b0c
DTITLE=Jon Galfano - Pacific Point of View
DYEAR=2004
DGENRE=New Age
TTITLE0=Ride the Wild Horses
TTITLE1=You'll Get Back To Me
TTITLE2=Wind In the Willows
TTITLE3=Sierra Sunrise
TTITLE4=She'll Never Know (Kawai)
TTITLE5=Rainy Morning In Paris (Intro)
TTITLE6=Rainy Morining In Paris
TTITLE7=The Belles of Bedford
TTITLE8=Dimples In the Closet
TTITLE9=The Fond Farewell
TTITLE10=When Heroes Fly
TTITLE11=Day of the Stallions
EXTD=YEAR: 2004
EXTT0=
EXTT1=
EXTT2=
EXTT3=
EXTT4=
EXTT5=
EXTT6=
EXTT7=
EXTT8=
EXTT9=
EXTT10=
EXTT11=
PLAYORDER=
